<svg xmlns="http://www.w3.org/2000/svg" fill="none" viewBox="0 0 24 24">
  <g clip-path="url(#0O_-WTzoSa)">
    <path d="M13 2v1h7v2h-7v14h4v2H7v-2h4V5H4V3h7V2h2zM5 6.343l2.828 2.829A3.999 3.999 0 015 16a3.999 3.999 0 01-2.828-6.828L5 6.343zm14 0l2.828 2.829A3.999 3.999 0 0119 16a3.999 3.999 0 01-2.828-6.828L19 6.343zm0 2.829l-1.414 1.414A1.986 1.986 0 0017 12l4 .001c0-.54-.212-1.041-.586-1.415L19 9.172zm-14 0l-1.414 1.414A1.986 1.986 0 003 12l4 .001c0-.54-.212-1.041-.586-1.415L5 9.172z" fill="#0C0D36"/>
  </g>
  <defs>
    <clipPath id="0O_-WTzoSa">
      <path fill="#fff" d="M0 0h24v24H0z"/>
    </clipPath>
  </defs>
</svg>
